<svg width="38" height="38" viewBox="0 0 38 38" fill="none" xmlns="http://www.w3.org/2000/svg">
<path d="M28.0679 11.0912C26.3767 10.3479 24.5685 9.8076 22.6781 9.5C22.4458 9.89435 22.1746 10.4248 21.9877 10.8467C19.978 10.5628 17.9869 10.5628 16.0143 10.8467C15.8273 10.4248 15.5499 9.89435 15.3157 9.5C13.4232 9.8076 11.6129 10.3498 9.92177 11.0952C6.51077 15.9378 5.58611 20.6603 6.04844 25.3156C8.3108 26.9029 10.5033 27.8671 12.6588 28.498C13.191 27.8099 13.6656 27.0784 14.0746 26.3074C13.2958 26.0294 12.5499 25.6863 11.8451 25.288C12.0321 25.1579 12.2149 25.0218 12.3917 24.8818C16.6904 26.7708 21.3609 26.7708 25.6083 24.8818C25.787 25.0218 25.9699 25.1579 26.1548 25.288C25.448 25.6882 24.7 26.0313 23.9212 26.3094C24.3302 27.0784 24.8027 27.8119 25.337 28.5C27.4945 27.869 29.6891 26.9049 31.9515 25.3156C32.494 19.9189 31.0247 15.2398 28.0679 11.0912ZM14.6602 22.4526C13.3698 22.4526 12.3115 21.3208 12.3115 19.9426C12.3115 18.5643 13.3471 17.4305 14.6602 17.4305C15.9732 17.4305 17.0314 18.5623 17.0088 19.9426C17.0109 21.3208 15.9732 22.4526 14.6602 22.4526ZM23.3398 22.4526C22.0493 22.4526 20.991 21.3208 20.991 19.9426C20.991 18.5643 22.0267 17.4305 23.3398 17.4305C24.6527 17.4305 25.711 18.5623 25.6884 19.9426C25.6884 21.3208 24.6527 22.4526 23.3398 22.4526Z" fill="white"/>
</svg>
